<?xml version="1.0" encoding="UTF-8"?>
<svg id="Logo" xmlns="http://www.w3.org/2000/svg" xmlns:xlink="http://www.w3.org/1999/xlink" viewBox="0 0 930.59924 421.37919">
  <defs>
    <style>
      .cls-1 {
        fill: url(#linear-gradient);
      }

      .cls-1, .cls-2, .cls-3 {
        stroke: #000;
        stroke-miterlimit: 10;
        stroke-width: 5px;
      }

      .cls-2 {
        fill: #f0f;
      }

      .cls-3 {
        fill: #39ffb6;
      }
    </style>
    <linearGradient id="linear-gradient" x1="123.99488" y1="487.07802" x2="843.31507" y2="-95.42728" gradientUnits="userSpaceOnUse">
      <stop offset=".11344" stop-color="#f0f"/>
      <stop offset=".8395" stop-color="#39ffb6"/>
    </linearGradient>
  </defs>
  <g id="LogoGroup">
    <path id="Infinity" class="cls-1" d="M465.29962,268.36526c-71.74019,71.74019-146.29655,150.51394-260.23807,150.51394C86.89922,418.87919,2.5,331.66724,2.5,210.68874,2.5,99.56167,92.52812,2.5,216.31593,2.5c104.09523,0,181.46432,82.99457,248.9837,150.51566C537.03981,81.27375,611.59618,2.5,725.53769,2.5c119.56699,0,202.56155,87.21367,202.56155,208.18874,0,111.12878-90.02812,208.19046-213.81593,208.19046-104.09523,0-181.46089-82.99457-248.9837-150.51394ZM409.03119,210.68874c-54.86035-50.63953-112.53343-123.78781-194.12335-123.78781-70.33211,0-123.78781,57.6748-123.78781,123.78781,0,71.74363,50.64296,123.79124,119.57042,123.79124,80.1784,0,144.88847-68.92746,198.34073-123.79124ZM839.47921,210.68874c0-71.74019-50.63953-123.78781-119.56699-123.78781-80.18183,0-144.8919,68.92746-198.34417,123.78781,54.86035,50.64296,112.53343,123.79124,194.12335,123.79124,70.33554,0,123.78781-57.67652,123.78781-123.79124Z"/>
    <path id="Q" class="cls-3" d="M270.07734,240.0809l.70365.8384c1.3134,1.39506,2.34506,2.27973,3.09635,2.65266.74925.37292,1.78159.55802,3.09703.55802,2.25183,0,3.89324-.4682,4.92558-1.41003,1.03234-.94047,1.82923-2.77379,2.39338-5.5013v-5.0753l13.10063.14019v4.4778c0,2.98611-.13951,5.45775-.41784,7.41763-.93027,6.71806-3.39306,11.99071-7.38701,15.81521-3.996,3.82314-8.91954,5.73812-14.77266,5.73812-2.23005,0-4.50774-.2831-6.82967-.84792-2.32328-.56755-4.78608-1.50939-7.38633-2.82687-.83636-.37565-2.4172-1.36512-4.73844-2.96569-2.32397-1.60058-3.9504-2.82415-4.87795-3.67343-4.46011,2.27565-9.22237,3.95789-14.28541,5.05216-5.06509,1.09155-10.75557,1.63732-17.07281,1.63732-19.14158,0-33.82101-4.75409-44.04102-14.265-10.22205-9.51363-15.33069-22.48156-15.33069-38.90447,0-16.51547,5.01745-29.41398,15.05167-38.69488,10.4051-9.64905,25.17845-14.4746,44.32003-14.4746,19.13954,0,33.9122,4.84052,44.31935,14.51815,10.12609,9.39862,15.19118,22.33389,15.19118,38.8058,0,5.2114-1.48693,11.91177-4.45943,20.09975-.93027,2.70029-2.46279,6.32745-4.59961,10.88827ZM242.62189,209.00781c0-12.63448-2.23005-22.39037-6.69016-29.26767-4.08923-6.22333-9.43128-9.33737-16.02754-9.33737h-1.95104c-.55734.09323-1.72035.32665-3.48425.69685-5.38969,1.48693-9.61639,5.52852-12.68279,12.12477-3.34474,7.24751-5.01677,17.1429-5.01677,29.68619,0,4.92558.74244,9.70962,2.22937,14.35482.83636-3.52916,4.08787-7.24751,9.75589-11.14959,4.73912-3.34406,9.98727-5.01813,15.7492-5.01813,1.95104,0,3.94768.46683,5.99263,1.3937,1.3937.65194,3.71494,1.95172,6.96849,3.90345l4.3206,2.64857.83636-10.03558ZM228.54539,234.88311c-2.50839-2.49069-4.59893-4.19743-6.27164-5.12021-1.67271-.92006-3.53188-1.38281-5.5748-1.38281-1.11469,0-2.39338.09391-3.83267.27765-1.44133.1851-2.88131,1.08338-4.3206,2.69757-1.44133,1.61419-2.15996,3.57408-2.15996,5.87694,0,1.66182.41784,3.41483,1.25419,5.25631.1851.28037,1.02146.90237,2.50839,1.87006,1.48557.96906,2.9269,1.63596,4.3206,2.0048,1.3937.3702,2.83299.55394,4.3206.55394,5.85381,0,10.77735-2.35187,14.77334-7.0556l-5.01745-4.97866Z"/>
    <path id="S" class="cls-2" d="M735.5831,167.89422l3.62443-6.68948h15.05167v35.12148h-15.6097l-.69685-2.50907c-2.04427-6.22333-5.64421-11.14959-10.80117-14.77334-5.15696-3.62307-11.68584-5.43529-19.5812-5.43529h-3.69385c-1.16232,0-2.90445.16332-5.22637.48793-2.32328.32665-4.34442.79076-6.06205,1.3937-1.72035.60566-3.22973,1.51143-4.52952,2.71798-1.76662,1.67203-2.64857,3.76258-2.64857,6.27164,0,2.4172.78804,4.31992,2.36956,5.71362.55802.46615,1.20588.88467,1.95172,1.25487,1.5788.83567,3.43525,1.44133,5.5748,1.81154l8.63984,1.95104,10.73175,1.95104c15.51579,2.7874,26.62046,6.59829,33.30994,11.4286,6.22401,4.55334,9.75589,11.01076,10.59157,19.37296.09119.83567.14019,1.99936.14019,3.48425,0,10.12745-4.27501,17.83907-12.8223,23.13485-9.10668,5.66871-22.62583,8.50238-40.55745,8.50238-5.76126,0-11.05704-.81526-15.88735-2.43897-4.83303-1.62507-9.71098-4.06405-14.63384-7.31692l-3.76326,8.22201h-15.05167v-38.88338h16.44537c.55802,2.97386,1.62507,5.76126,3.20523,8.36219,1.5788,2.6023,3.80953,5.1556,6.68948,7.66534,2.04291,1.76526,4.5758,3.3917,7.59593,4.87795,3.01877,1.48625,6.22401,2.67171,9.61707,3.55366,3.39034.88331,6.62007,1.32429,9.68648,1.32429,6.68948,0,11.56743-1.06977,14.63384-3.21068,3.06505-2.14091,4.59893-5.07121,4.59893-8.795,0-5.20868-4.13618-8.69973-12.40446-10.46771l-11.70625-2.37364-.97586-.14019c-6.22673-1.0235-10.50038-1.76526-12.8223-2.2321-2.32328-.46547-4.59893-.97722-6.82967-1.53525-19.32668-5.30463-28.98866-14.79716-28.98866-28.47691,0-3.3495.64921-6.88411,1.95172-10.6079,2.32056-6.51323,6.96849-11.72395,13.93699-15.63284,7.71026-4.28181,17.3736-6.42204,28.98866-6.42204,3.99327,0,8.31456.27833,12.96113.83636l5.29578.97518c3.99463.83636,7.29378,1.81222,9.89608,2.9269,2.59957,1.11469,5.20187,2.64789,7.80417,4.59893Z"/>
  </g>
</svg>